<?xml version="1.0" encoding="UTF-8"?>
<svg id="_レイヤー_1" data-name="レイヤー 1" xmlns="http://www.w3.org/2000/svg" viewBox="0 0 284.86 85.04">
  <defs>
    <style>
      .cls-1 {
        fill: #231815;
      }

      .cls-2 {
        fill: #d7000f;
      }

      .cls-3 {
        fill: #fff;
      }
    </style>
  </defs>
  <g>
    <rect class="cls-2" x="15.73" y="14.08" width="58.31" height="58.31" rx="22.11" ry="22.11"/>
    <g>
      <path class="cls-3" d="M35.39,63.12c-4.31,0-8.54-2.82-10.53-7.01-2.77-5.83-1.84-13.77,2.48-21.25l.7-1.21c4.35-7.53,10.18-11.52,16.85-11.52,6.67,0,12.5,3.98,16.85,11.52l.7,1.21c4.32,7.48,5.24,15.42,2.48,21.25-1.99,4.19-6.22,7.01-10.53,7.01-.96,0-1.92-.14-2.83-.43-2.15-.67-4.4-1.01-6.67-1.01s-4.52.34-6.67,1.01c-.91.28-1.86.43-2.83.43h0Z"/>
      <circle class="cls-2" cx="44.88" cy="44.64" r="6.99"/>
    </g>
  </g>
  <g>
    <g>
      <path class="cls-1" d="M188.34,62.65c-.27,0-.48-.21-.48-.48v-12.97c0-.27.21-.48.48-.48h12.07c3.42,0,6.2,2.78,6.2,6.2v7.25c0,.27-.21.48-.48.48h-17.79ZM201.51,57.54v-2.61h-8.54v2.61h8.54Z"/>
      <path class="cls-1" d="M155.73,61.31c-.27,0-.48-.21-.48-.48v-11.45c0-.27.21-.48.48-.48h2.55c1.67,0,3.03,1.36,3.03,3.03v1.76h3.62v-12.1h-5.86c-1.67,0-3.03-1.36-3.03-3.03v-13.66c0-.27.21-.48.48-.48h16.83c3.42,0,6.2,2.78,6.2,6.2v10.48c0,.27-.21.48-.48.48h-8.09v3.11h5.85c.15,0,.29.07.38.18s.12.27.09.41l-1.27,5.1c-.05.21-.25.36-.47.36h-4.58v2.93h7.12c.15,0,.29.07.38.18.09.12.12.27.09.41l-1.27,5.1c-.05.21-.25.36-.47.36h-15.52v1.08c0,.27-.21.48-.48.48h-5.1ZM174.13,36.17v-3.79c0-.95-.78-1.73-1.73-1.73h-10.93v5.52h12.66Z"/>
      <path class="cls-1" d="M183.32,50.94c-.09,0-.17-.02-.25-.07-.14-.09-.23-.24-.23-.41v-5.05c0-.18.1-.35.26-.43l9.79-4.93-2.73-1.83-.38,1.41c-.06.21-.25.36-.46.36h-5.25c-.15,0-.29-.07-.38-.19-.09-.12-.12-.27-.08-.42l3.81-14.37c.06-.21.25-.36.46-.36h5.25c.15,0,.29.07.38.19.09.12.12.27.08.42l-1.15,4.33h14.3c.27,0,.48.21.48.48v3.8c0,.14-.06.27-.17.36l-6.7,5.79,9.81,4.89c.16.08.27.25.27.43l.03,5.12c0,.17-.09.33-.23.41-.08.05-.16.07-.25.07-.08,0-.15-.02-.22-.05l-13.16-6.9-13.07,6.9c-.07.04-.15.06-.22.06ZM196.68,35.92l2.46-1.66h-4.91l2.46,1.66Z"/>
    </g>
    <g>
      <path class="cls-1" d="M239.12,69.24c-1.34,0-2.52-.9-2.87-2.2l-1.07-3.97c-.04-.16,0-.32.09-.45.1-.13.25-.2.41-.2h3.19c1.34,0,2.52.9,2.87,2.2l.04.14h4.31v-4.51h-4.04c-1.34,0-2.52-.91-2.87-2.2l-.43-1.62c-.04-.16,0-.32.09-.45s.25-.2.41-.2h6.84v-3.33h-6.46c-1.34,0-2.52-.91-2.87-2.2l-.51-1.91c-.05-.18,0-.38.14-.51l3.6-3.44h-7.01c-.16,0-.32-.08-.41-.21-.1-.13-.13-.3-.09-.45l1.2-4.38c.06-.23.27-.38.5-.38h28.74c.16,0,.32.08.41.21.1.13.13.3.09.45l-1.19,4.38c-.06.23-.27.38-.5.38h-14.67l-4,3.58h11.76l-.45-1.99c-.03-.15,0-.32.1-.44.1-.12.25-.2.41-.2h4.86c.24,0,.45.16.5.39l2.12,8.34c.04.16,0,.32-.09.45s-.25.2-.41.2h-4.86c-.24,0-.44-.16-.5-.39l-.51-1.89h-3.95v3.33h4.8c1.34,0,2.52.91,2.87,2.2l.43,1.62c.04.16,0,.32-.09.45s-.25.2-.41.2h-7.6v4.51h12.13c1.34,0,2.52.91,2.87,2.21l.43,1.62c.04.16,0,.32-.09.45s-.25.2-.41.2h-27.83Z"/>
      <path class="cls-1" d="M217.17,50.35c-.18,0-.36-.1-.45-.26-.09-.16-.1-.36,0-.52l9.94-17.85,2.54-4.79c-1.28-.07-2.38-.95-2.71-2.2l-1.17-4.27c-.04-.16-.01-.32.09-.45.1-.13.25-.21.41-.21h34.4c1.2,0,2.28.56,2.98,1.54.69.98.87,2.18.48,3.32l-3.15,9.09c-.81,1.92-2.22,2.8-4.45,2.8h-25.06l-7.38,13.52c-.09.17-.27.27-.46.27h-6ZM254.68,30.25l1.32-3.31h-19.66l-1.87,3.31h20.21Z"/>
      <path class="cls-1" d="M88.84,30.53c-.24,0-.44-.16-.5-.39l-1.36-5.1c-.04-.16,0-.32.09-.45.1-.13.25-.2.41-.2h5.2c1.39,0,2.61.94,2.97,2.28l.86,3.21c.04.16,0,.32-.09.45s-.25.2-.41.2h-7.16Z"/>
      <path class="cls-1" d="M89.23,41.7c-.24,0-.44-.16-.5-.39l-1.36-5.1c-.04-.16,0-.32.09-.45s.25-.2.41-.2h8.38c1.39,0,2.61.94,2.97,2.28l.85,3.21c.04.16,0,.32-.09.45s-.25.2-.41.2h-10.33Z"/>
      <path class="cls-1" d="M86.9,61.23c-.16,0-.31-.08-.41-.2s-.13-.29-.09-.45l1.36-5.1c.06-.23.27-.39.5-.39h10.33c.16,0,.31.08.41.2s.13.29.09.45l-.85,3.21c-.36,1.34-1.58,2.28-2.97,2.28h-8.38Z"/>
      <path class="cls-1" d="M103.64,36.97c-.29,0-.52-.23-.52-.52v-6.51c0-.16.07-.31.2-.41.09-.07.21-.11.32-.11.04,0,.08,0,.13.02l9.51,2.38c1.37.34,2.33,1.57,2.33,2.98v1.66c0,.29-.23.52-.52.52h-11.45Z"/>
      <path class="cls-1" d="M134.86,36.97c-.21,0-.4-.12-.48-.31-.08-.19-.04-.41.1-.56l7.13-7.58c.1-.11.24-.16.38-.16.05,0,.1,0,.15.02.19.05.33.21.37.4l.83,4.32c.25.92.06,1.91-.52,2.68-.59.77-1.47,1.21-2.44,1.21h-5.52Z"/>
      <path class="cls-1" d="M134.86,55.85c-.21,0-.4-.12-.48-.31-.08-.19-.04-.41.1-.56l7.13-7.58c.1-.11.24-.16.38-.16.05,0,.1,0,.15.02.19.05.33.21.37.4l.83,4.32c.25.94.07,1.9-.52,2.68-.58.77-1.47,1.21-2.44,1.21h-5.52Z"/>
      <path class="cls-1" d="M107.06,55.85c-1.38,0-2.59-.93-2.96-2.25l-.89-3.23c-.04-.16-.01-.32.09-.45.1-.13.25-.21.41-.21h8.23c.23,0,.44.16.5.38l1.41,5.1c.04.16.01.32-.09.45-.1.13-.25.21-.41.21h-6.28Z"/>
      <path class="cls-1" d="M132.63,64.28c-.94,0-1.81-.42-2.39-1.15l-6.27-7.79-6.27,7.79c-.59.73-1.46,1.15-2.39,1.15h-5.11c-.2,0-.38-.12-.47-.3s-.06-.4.06-.55l10.31-12.82v-2.99c0-.29.23-.52.52-.52h4.14c.82,0,1.59.32,2.17.9.58.58.9,1.35.9,2.17v.44s10.31,12.82,10.31,12.82c.13.16.15.37.06.55s-.27.3-.47.3h-5.11Z"/>
      <path class="cls-1" d="M132.63,48.54c-.94,0-1.81-.42-2.39-1.15l-6.27-7.79-6.27,7.79c-.59.73-1.46,1.15-2.39,1.15h-5.11c-.2,0-.38-.12-.47-.3s-.06-.4.06-.55l10.3-12.81,7.48-16.88c.08-.17.24-.29.43-.31.01,0,.03,0,.04,0,.17,0,.34.09.44.24l4.36,6.66c.78,1.09.77,2.56-.05,3.64l-4.99,6.6,10.34,12.86c.13.16.15.37.06.55s-.27.3-.47.3h-5.11Z"/>
    </g>
  </g>
</svg>